<svg xmlns="http://www.w3.org/2000/svg" width="752.92487pt" height="150pt" viewBox="0 0 752.92488 150"><path fill="#009692" d="M375.246-791.727c-1.015-5.57-2.527-10.993-4.759-15.991-7.027-15.272-16.931-28.109-31.668-36.685-22.889-13.39-50.684-13.28-73.333.461-10.291 6.216-18.702 15.143-24.198 25.877a78.21 78.21 0 0 0-4.537 11.343c-6.013 19.034-5.81 44.616 5.035 61.971 3.486 5.626 8.576 10.495 14.829 12.91 6.16 2.38 13.5 2.122 19.163-1.512 7.156-4.647 8.447-13.537 7.156-21.431-1.734-10.126-3.006-20.104.738-29.99 1.18-3.172 2.822-6.197 5.275-8.521a20.215 20.215 0 0 1 5.109-3.486c3.91-1.9 8.336-2.766 12.615-2.066 7.544 1.218 13.741 7.064 17.024 13.907 3.32 6.824 4.279 14.59 4.648 22.151 1.512 33.18-6.363 67.505-14.866 99.265-.774 3.283-1.752 6.566-2.637 9.849-.72 2.508-1.974 5.68-.424 8.189.737 1.014 1.789 1.77 2.987 2.195 4.851 1.992 8.89-1.015 12.173-4.335 19.403-19.532 31.927-44.744 40.355-70.64 3.265-9.683 5.976-19.55 7.802-29.583 2.527-13.723 3.966-29.4 1.513-43.878M514.3-944.885c0-4.924-4.409-8.189-9.149-8.078-4.795.184-9.259 2.656-13.667 4.298-85.45 32.534-181.8 38.713-271.844 25.71-15.4-2.268-31.004-5.367-46.515-7.746-9.72-1.513-19.292-3.726-29.123-4.482-8.318-.627-18.646-.885-25.36 4.906-8.927 7.654-8.318 22.188-3.283 31.797 6.142 11.51 16.636 20.196 27.721 26.762 10.698 6.363 23.48 13.169 36.242 12.394a1571.813 1571.813 0 0 0 103.01-10.033c58.263-7.562 119.386-14.7 174.22-37.33 17.908-7.378 35.56-16.637 50.941-28.551 2.767-2.085 6.806-5.607 6.806-9.647" style="stroke-width:18.4438" transform="matrix(.40987 0 0 .40987 -45.789 413.402)"/><path fill="#ed2254" d="M269.227-974.153c0 18.554 14.995 33.549 33.641 33.549 18.555 0 33.55-14.995 33.55-33.55a19.31 19.31 0 0 0-1.79-8.06c-2.858-6.123-6.141-9.092-5.79-16.396.405-9.886-12.21-10.015-19.016-10.015-7.47 0-15.327 1.014-22.078 4.408-5.312 2.73-9.904 6.824-13.169 11.841-3.338 5.257-5.22 11.306-5.348 17.466v.757" style="stroke-width:18.4438" transform="matrix(.40987 0 0 .40987 -45.789 413.402)"/><path fill="#2c292a" d="M586.118-894.974v-25.785h37.865v25.785h50.702v24.42H648.07c11.989 14.386 19.55 34.674 19.79 58.264-.24 45.814-26.005 79.954-62.82 79.954-37.938.258-63.17-34.14-63.17-79.954 0-23.59 7.581-43.878 19.478-58.264H536.41v-24.42zm18.923 24.936c-14.884 0-26.836 22.778-26.578 57.748-.258 33.31 11.38 55.57 26.246 55.57 15.216 0 26.596-21.707 26.596-55.57 0-36.574-10.863-57.748-26.264-57.748m130.62 48.286v146.389h-36.557V-920.76h36.556v74.569h35.265v24.438zM830.31-770.294h61.474c16.562 0 29.049.867 44.523-7.303v-143.161h36.592v74.568h35.21v24.438h-35.21v146.389h-36.592v-77.833c-12.819 5.699-29.842 7.322-45.335 7.322H809.93c-15.917 0-28.164-15.456-28.164-33.605v-130.398h36.574v129.605c0 6.197 4.095 9.978 11.97 9.978M1168.019-820.695c4.352-13.796 5.662-31.447 5.662-49.06v-21.137h-128.756v-24.42h165.349v44.763c0 18.407-2.398 36.316-6.677 49.854h33.568v24.42h-219.63v-24.42zm41.996 48.526v99.467h-140.394c-13.556 0-24.973-15.142-24.973-33.549v-65.918zm-128.738 24.438v40.872c0 7.045 4.316 9.793 10.55 9.793h81.596v-50.665zM1364.787-927.502c39.838 0 67.836 31.963 67.836 65.052 0 15.179-5.22 29.565-14.405 40.705h56.143v24.364h-45.371v48.766h-.498c2.748 6.51 4.352 13.87 4.352 21.432 0 37.164-34.748 59.905-68.334 59.905-36.574 0-68.556-23.331-68.556-59.905 0-7.562 1.697-14.921 4.316-21.432h-.295v-48.766h-45.188v-24.364h56.567c-9.166-11.14-14.367-25.526-14.367-40.705 0-31.964 27.149-65.052 67.8-65.052m-.278 164.261c-14.902 0-32.258 12.763-32 36.058-.258 22.206 16.083 35.54 31.76 35.54 15.18 0 31.945-12.725 31.945-35.54 0-21.69-16.267-36.058-31.705-36.058m.277-139.86c-18.13 0-31.446 19.514-31.078 40.65-.368 21.156 13.206 40.706 31.078 40.706 17.3 0 30.93-19.015 31.17-40.705-.24-20.602-14.367-40.65-31.17-40.65m27.39 105.72h-55.295v14.92c8.687-3.282 17.853-5.2 27.629-5.2 9.535 0 18.96 1.918 27.665 5.459zM1616.637-882.79h-42.052v24.973c-.277 43.878 17.872 78.59 47.42 89.988v25.729c-32.812-4.611-62.617-33.07-67.468-47.973-4.87 15.143-33.66 42.845-65.347 47.973v-25.73c29.252-11.656 47.198-45.556 47.438-90.522v-24.438h-43.362v-24.4h123.371zm70.456 207.42h-36.63v-245.396h36.63zM1729.085-786.543h219.63v24.438h-91.39v86.741h-36.869v-86.74h-91.37zm192.775-101.68h-63.41c4.003 30.69 31.927 53.744 65.808 55.33v25.213c-39.839 0-75.896-23.866-86.465-40.668-10.844 16.802-46.33 40.668-84.25 40.668v-25.212c32.792-1.586 61.196-24.42 65.825-55.332h-62.967v-24.383h165.46z" style="stroke-width:18.4438" transform="matrix(.40987 0 0 .40987 -45.789 413.402)"/></svg>